<svg width="48" height="48" viewBox="0 0 48 48" fill="none" xmlns="http://www.w3.org/2000/svg">
<path d="M15.2837 11C16.5305 11 17.6524 11.108 18.6811 11.3281C19.7035 11.5461 20.5756 11.906 21.3123 12.4034C22.0383 12.9009 22.6056 13.5613 23.0142 14.3911C23.41 15.2103 23.6069 16.2348 23.6069 17.4456C23.6069 18.758 23.3105 19.8545 22.7157 20.7287C22.1167 21.6051 21.234 22.3227 20.057 22.8773C21.6594 23.3408 22.8469 24.1516 23.6344 25.3031C24.4261 26.4652 24.8134 27.8559 24.8134 29.4858C24.8134 30.8088 24.5615 31.9455 24.0556 32.9002C23.5681 33.8407 22.8608 34.6496 21.9939 35.2583C21.0959 35.8836 20.0928 36.3425 19.0325 36.6131C17.9208 36.9049 16.776 37.0514 15.6266 37.0491H3V11H15.2837ZM14.5407 21.5246C15.5567 21.5246 16.3992 21.2833 17.0639 20.7943C17.7243 20.3117 18.044 19.5158 18.044 18.4257C18.044 17.8203 17.936 17.3207 17.7243 16.9291C17.5181 16.5524 17.2129 16.2391 16.8416 16.0231C16.4531 15.7927 16.0242 15.6382 15.5779 15.568C15.0915 15.4773 14.5973 15.434 14.1025 15.4389H8.73648V21.5246H14.5407ZM14.8603 32.6145C15.4255 32.6145 15.9632 32.5658 16.4691 32.4515C16.9792 32.3414 17.4322 32.1636 17.8175 31.899C18.2027 31.645 18.5202 31.2999 18.7489 30.8596C18.9796 30.4236 19.0918 29.8542 19.0918 29.1705C19.0918 27.8284 18.7129 26.8737 17.9635 26.2959C17.2121 25.7243 16.2045 25.4407 14.9704 25.4407H8.73648V32.6166H14.8603V32.6145ZM32.9906 32.5277C33.7674 33.2855 34.8872 33.6665 36.3435 33.6665C37.3871 33.6665 38.2889 33.4019 39.0488 32.8769C39.7981 32.3499 40.2554 31.7868 40.431 31.2047H44.9927C44.2603 33.4739 43.149 35.0953 41.6291 36.0712C40.1283 37.0512 38.3016 37.5381 36.1678 37.5381C34.6819 37.5381 33.3441 37.2989 32.146 36.8247C30.996 36.3769 29.9568 35.685 29.0999 34.7969C28.2572 33.888 27.6057 32.819 27.1842 31.6534C26.7209 30.3645 26.4915 29.0032 26.5069 27.6337C26.5069 26.2239 26.7418 24.9051 27.2033 23.688C27.6413 22.5114 28.314 21.4362 29.1804 20.5276C30.0376 19.6386 31.0537 18.9379 32.237 18.4236C33.4813 17.9002 34.8202 17.6394 36.17 17.6573C37.766 17.6573 39.161 17.9663 40.3591 18.5887C41.5209 19.1827 42.5284 20.0394 43.3014 21.0907C44.0698 22.1343 44.618 23.3303 44.9588 24.6702C45.2996 26.008 45.4182 27.4051 45.3208 28.8678H31.7078C31.7099 30.358 32.2116 31.7699 32.9906 32.5277ZM38.9429 22.619C38.327 21.9374 37.2855 21.5691 36.0112 21.5691C35.1835 21.5691 34.4998 21.7067 33.9495 21.9903C33.4462 22.2445 32.9998 22.5981 32.6371 23.0297C32.3185 23.4215 32.0823 23.8737 31.9428 24.359C31.8207 24.7637 31.7419 25.1802 31.7078 25.6016H40.1368C40.014 24.2807 39.561 23.3048 38.9429 22.619ZM30.6494 12.7485H41.21V15.3204H30.6494V12.7485Z" fill="#E3E4E6"/>
</svg>
