<svg width="48" height="48" viewBox="0 0 48 48" fill="none" xmlns="http://www.w3.org/2000/svg">
<path d="M42 24C42.003 26.3709 41.5362 28.7189 40.6265 30.9083C39.7168 33.0977 38.3822 35.0851 36.6999 36.7557C35.0313 38.4213 33.0509 39.7418 30.8718 40.6416C28.6927 41.5414 26.3576 42.003 24 42C14.0586 42 6.00002 33.9414 6.00002 24C5.99372 19.3846 7.7666 14.9443 10.95 11.6025C12.6297 9.83005 14.6534 8.41898 16.8973 7.45566C19.1412 6.49233 21.5581 5.99702 24 6.00002C26.3576 5.99696 28.6927 6.45855 30.8718 7.35839C33.0509 8.25824 35.0313 9.5787 36.6999 11.2443M42 24C42.003 21.6291 41.5362 19.2811 40.6265 17.0917C39.7168 14.9023 38.3822 12.9149 36.6999 11.2443M42 24C39.3738 24 32.1288 23.0098 25.6444 25.8565C18.6001 28.9498 13.4998 33.7477 11.2768 36.7321M42 24C42 26.2167 41.5994 28.3387 40.8659 30.2998M36.6999 11.2443C35.1149 9.66503 33.2498 8.39435 31.1999 7.49747M17.25 7.30886C20.067 9.90896 26.214 16.5293 28.5 23.1002C30.786 29.672 31.632 37.7522 32.154 40.0517M6.13872 21.7501C9.53892 21.9553 18.5398 22.1398 24.2998 19.6801C30.0598 17.2204 35.0161 12.6961 36.7162 11.2606M7.34995 30.8517C8.93603 34.691 11.7966 37.8665 15.4499 39.8436" stroke="#E3E4E6" stroke-width="3.6" stroke-linecap="round" stroke-linejoin="round"/>
</svg>
