<svg width="48" height="48" viewBox="0 0 48 48" fill="none" xmlns="http://www.w3.org/2000/svg">
<path d="M43 17.7549V33.2247C43.0001 34.8019 42.3966 36.3195 41.3134 37.4659C40.2302 38.6124 38.7493 39.3009 37.1746 39.3902L36.825 39.3997H11.175C9.59774 39.3998 8.08023 38.7963 6.93376 37.7131C5.7873 36.6299 5.0988 35.149 5.0095 33.5743L5 33.2247V17.7549L23.3388 27.3613C23.5428 27.4681 23.7697 27.524 24 27.524C24.2303 27.524 24.4572 27.4681 24.6612 27.3613L43 17.7549Z" fill="#E3E4E6"/>
<path d="M11.1749 9H36.8249C38.3555 8.99982 39.8316 9.56809 40.9669 10.5946C42.1023 11.6211 42.8159 13.0327 42.9695 14.5556L23.9999 24.4926L5.03027 14.5556C5.17757 13.0932 5.84167 11.7313 6.9032 10.7147C7.96473 9.69808 9.35407 9.09346 10.8215 9.0095L11.1749 9H36.8249H11.1749Z" fill="#E3E4E6"/>
</svg>
