<svg width="48" height="48" viewBox="0 0 48 48" fill="none" xmlns="http://www.w3.org/2000/svg">
<path fill-rule="evenodd" clip-rule="evenodd" d="M18.115 18.9172H25.1716V22.0807C26.1881 20.2612 28.7949 18.6265 32.7108 18.6265C40.2177 18.6265 41.9999 22.2482 41.9999 28.8933V41.2002H34.3999V30.4067C34.3999 26.6224 33.3834 24.4883 30.7956 24.4883C27.2065 24.4883 25.715 26.7883 25.715 30.405V41.2002H18.115V18.9172Z" fill="#E3E4E6"/>
<path fill-rule="evenodd" clip-rule="evenodd" d="M5.08301 40.9095H12.683V18.6265H5.08301V40.9095Z" fill="#E3E4E6"/>
<path fill-rule="evenodd" clip-rule="evenodd" d="M13.7717 11.3605C13.772 11.9338 13.6456 12.5015 13.4 13.0305C13.1544 13.5595 12.7944 14.0392 12.341 14.4419C11.4222 15.2638 10.1784 15.7238 8.883 15.721C7.58984 15.7202 6.34899 15.2614 5.4288 14.4436C4.977 14.0396 4.61823 13.5593 4.37305 13.0302C4.12787 12.5011 4.0011 11.9337 4 11.3605C4 10.2028 4.513 9.09475 5.4307 8.27737C6.35008 7.45855 7.59146 6.99949 8.8849 7C10.1807 7 11.4233 7.45999 12.341 8.27737C13.2568 9.09475 13.7717 10.2028 13.7717 11.3605Z" fill="#E3E4E6"/>
</svg>
