<svg width="195" height="61" viewBox="0 0 195 61" fill="none" xmlns="http://www.w3.org/2000/svg">
<g clip-path="url(#clip0_47_812)">
<path d="M55.7454 43.3779C55.4403 42.6406 55.1544 41.8654 54.8493 41.2037L53.4385 38.0463L53.3813 37.9896C49.187 28.9146 44.7067 19.6884 39.9595 10.6134L39.7688 10.2352C39.2922 9.34665 38.8156 8.36352 38.3199 7.45602C37.7098 6.37837 37.1188 5.22508 36.1464 4.12852C35.1987 2.98116 34.0059 2.05675 32.6541 1.42201C31.3024 0.787261 29.8254 0.458008 28.3297 0.458008C26.8341 0.458008 25.3571 0.787261 24.0054 1.42201C22.6536 2.05675 21.4608 2.98116 20.513 4.12852C19.617 5.22508 18.9497 6.37837 18.3396 7.45602C17.863 8.43915 17.3864 9.40337 16.8907 10.292L16.7 10.6701C12.0291 19.7451 7.47249 28.9713 3.27816 38.0463L3.16377 38.1598C2.74434 39.1429 2.24864 40.1638 1.77201 41.2604C1.46697 41.9221 1.16193 42.6406 0.856889 43.4346C0.0333377 45.5139 -0.229648 47.7701 0.0938497 49.9809C0.417348 52.1917 1.31616 54.2807 2.70171 56.0421C4.08727 57.8035 5.91173 59.1764 7.9953 60.0257C10.0789 60.8749 12.3496 61.1711 14.5838 60.8851C16.7257 60.6055 18.7882 59.898 20.6465 58.8054C23.125 57.4252 25.5081 55.4212 28.1772 52.5285C30.8463 55.4212 33.2867 57.4252 35.7079 58.8243C38.0364 60.1796 40.6732 60.9276 43.3721 60.9985C46.4976 61.0114 49.5222 59.9025 51.8875 57.8766C54.2529 55.8506 55.7992 53.0445 56.2411 49.9762C56.7517 47.7713 56.5789 45.4649 55.7454 43.359V43.3779ZM28.3679 46.5163C25.0887 42.357 22.9534 38.5379 22.2289 35.2671C21.9287 34.0551 21.864 32.7975 22.0382 31.5615C22.1717 30.5973 22.5339 29.7465 23.0296 29.0281C24.1735 27.3832 26.1754 26.3623 28.3679 26.3623C29.4091 26.3307 30.4419 26.5561 31.3736 27.018C32.3053 27.48 33.1068 28.1642 33.7061 29.0091C34.2018 29.7654 34.564 30.5973 34.6784 31.5615C34.8691 32.6581 34.7928 33.9248 34.4878 35.2671C33.7633 38.4812 31.628 42.3381 28.3679 46.5163ZM52.6568 49.3145C52.4402 50.8722 51.8158 52.3465 50.8457 53.5905C49.8756 54.8344 48.5938 55.8046 47.1279 56.4043C45.679 57.0093 44.0775 57.1795 42.5142 57.0093C40.989 56.8202 39.4638 56.3287 37.9004 55.4212C35.3047 53.8302 32.9707 51.8535 30.9798 49.5602C34.9835 44.6446 37.4047 40.1638 38.3199 36.1746C38.7584 34.284 38.8156 32.5824 38.6249 31.0132C38.3868 29.5258 37.8275 28.107 36.9853 26.8538C36.0237 25.495 34.7401 24.3912 33.2474 23.6395C31.7548 22.8879 30.0988 22.5114 28.4251 22.5432C24.898 22.5432 21.7523 24.1691 19.8458 26.8349C18.9875 28.0849 18.4328 29.5151 18.2252 31.0132C17.9774 32.6013 18.0346 34.3596 18.5303 36.1746C19.4454 40.1638 21.9239 44.7013 25.8703 49.5981C23.9133 51.9352 21.5737 53.9292 18.9497 55.4968C17.3673 56.4043 15.8611 56.877 14.3359 57.066C11.964 57.3673 9.56803 56.728 7.66878 55.2872C5.76954 53.8463 4.52054 51.7202 4.19329 49.3712C4.00263 47.8587 4.13609 46.3462 4.74617 44.6446C4.93683 44.0396 5.2228 43.4346 5.52784 42.7162C5.94728 41.7331 6.44297 40.7121 6.9196 39.6912L6.99586 39.5588C11.1139 30.5406 15.6133 21.3332 20.2843 12.3149L20.4749 11.9368C20.9515 11.0293 21.4282 10.0651 21.9239 9.15758C22.4195 8.19337 22.9534 7.26696 23.6397 6.51071C24.2338 5.80744 24.9761 5.24186 25.8144 4.8538C26.6528 4.46574 27.5666 4.26463 28.4918 4.26463C29.4169 4.26463 30.3308 4.46574 31.1691 4.8538C32.0074 5.24186 32.7498 5.80744 33.3439 6.51071C34.0111 7.26696 34.564 8.19337 35.0597 9.15758C35.5364 10.0651 36.013 11.0482 36.5087 11.9368L36.6993 12.3149C41.3512 21.3332 45.8506 30.5406 50.0449 39.5588L50.1021 39.6156C50.5978 40.5987 51.0172 41.6952 51.4939 42.6406C51.7989 43.3779 52.1039 43.964 52.2946 44.5879C52.6568 46.2895 52.8475 47.802 52.6568 49.3145ZM79.1955 46.1004C77.7589 46.1212 76.3359 45.8211 75.0323 45.2221C73.7286 44.6232 72.5776 43.7408 71.6648 42.6406C69.6135 40.2961 68.5248 37.2732 68.6143 34.1706C68.583 31.0004 69.7068 27.9255 71.7792 25.5115C72.7377 24.3972 73.931 23.5048 75.2749 22.8973C76.6189 22.2897 78.0808 21.9817 79.5577 21.9949C80.9474 21.9572 82.324 22.2706 83.558 22.9056C84.792 23.5406 85.8429 24.4764 86.6118 25.6249L86.8025 22.6566H92.3695V45.4954H86.7834L86.5928 42.1679C85.8 43.3943 84.7042 44.3993 83.4095 45.0876C82.1149 45.7759 80.6643 46.1245 79.1955 46.1004ZM80.6444 40.6554C81.7502 40.6554 82.7225 40.3529 83.6377 39.8046C84.4765 39.1996 85.1629 38.4056 85.6967 37.4413C86.1733 36.4771 86.4212 35.3238 86.4212 34.0382C86.4955 32.9216 86.2763 31.805 85.7851 30.7975C85.2938 29.7901 84.5473 28.9263 83.6186 28.2907C82.7262 27.7393 81.6959 27.4471 80.6444 27.4471C79.593 27.4471 78.5627 27.7393 77.6703 28.2907C76.8314 28.8957 76.1451 29.6898 75.6112 30.654C75.1071 31.7174 74.8591 32.8824 74.8868 34.0571C74.8124 35.1737 75.0316 36.2904 75.5229 37.2978C76.0141 38.3052 76.7606 39.169 77.6893 39.8046C78.5854 40.3529 79.5577 40.6554 80.6444 40.6554ZM101.902 16.4932C101.902 17.1549 101.788 17.7599 101.483 18.2515C101.178 18.7241 100.758 19.159 100.205 19.4615C99.6524 19.764 99.0613 19.8774 98.4513 19.8774C97.8412 19.8774 97.2311 19.764 96.6782 19.4615C96.1553 19.1728 95.7156 18.7563 95.4008 18.2515C95.1056 17.7129 94.9608 17.1059 94.9814 16.4932C94.9814 15.8126 95.1149 15.2076 95.4008 14.7349C95.7059 14.1677 96.1444 13.8274 96.6782 13.5249C97.2311 13.2224 97.8221 13.0901 98.4513 13.0901C99.0581 13.0762 99.6582 13.2187 100.193 13.5037C100.728 13.7887 101.179 14.2064 101.502 14.716C101.779 15.2672 101.917 15.8773 101.902 16.4932ZM95.4199 45.4198V22.6188H101.483V45.4576H95.4008L95.4199 45.4198ZM117.688 28.5932V28.6688C117.402 28.5365 117.021 28.4798 116.735 28.4231C116.353 28.3474 116.048 28.3474 115.686 28.3474C113.989 28.3474 112.712 28.839 111.873 29.8599C110.958 30.8998 110.539 32.3556 110.539 34.2273V45.4387H104.457V22.5999H110.043L110.234 26.0598C110.844 24.8498 111.568 23.9423 112.598 23.2616C113.622 22.6003 114.827 22.2701 116.048 22.3163C116.487 22.3163 116.906 22.3541 117.269 22.4298C117.459 22.4865 117.574 22.4865 117.688 22.5432V28.5932ZM120.128 45.4198V13.2413H126.191V25.5304C127.049 24.4338 128.021 23.5831 129.241 22.9213C131.173 21.9821 133.368 21.7157 135.471 22.1651C137.574 22.6144 139.463 23.7533 140.833 25.3981C142.889 27.7474 143.978 30.7778 143.883 33.887C143.915 37.0571 142.791 40.132 140.719 42.546C139.76 43.6603 138.567 44.5527 137.223 45.1602C135.879 45.7678 134.417 46.0758 132.94 46.0626C131.55 46.1003 130.174 45.7869 128.94 45.1519C127.706 44.5169 126.655 43.5812 125.886 42.4326L125.695 45.4009L120.128 45.4576V45.4198ZM131.853 40.6554C132.94 40.6554 133.912 40.3529 134.828 39.8046C135.666 39.1996 136.353 38.4056 136.887 37.4413C137.382 36.4771 137.611 35.3238 137.611 34.0382C137.611 32.7715 137.382 31.6182 136.887 30.654C136.386 29.7242 135.682 28.9169 134.828 28.2907C133.935 27.7393 132.905 27.4471 131.853 27.4471C130.802 27.4471 129.772 27.7393 128.879 28.2907C128.021 28.8957 127.354 29.6898 126.801 30.654C126.297 31.7174 126.049 32.8824 126.077 34.0571C126.002 35.1737 126.221 36.2904 126.713 37.2978C127.204 38.3052 127.95 39.169 128.879 39.8046C129.775 40.3529 130.748 40.6554 131.853 40.6554ZM146.171 45.4387V22.5999H151.757L151.948 25.5682C152.65 24.4304 153.646 23.4992 154.832 22.871C156.019 22.2428 157.353 21.9403 158.697 21.9949C160.234 21.9686 161.744 22.3922 163.04 23.2127C164.335 24.0332 165.358 25.2142 165.98 26.6081C166.647 28.0449 167.009 29.8221 167.009 31.8073V45.4954H160.928V32.6013C160.928 31.0132 160.565 29.7654 159.841 28.839C159.116 27.9315 158.125 27.4399 156.867 27.4399C155.952 27.4399 155.151 27.629 154.446 28.0449C153.778 28.4798 153.225 29.0281 152.806 29.8032C152.382 30.5868 152.172 31.4666 152.196 32.3556V45.4387H146.171ZM170.041 45.4387V13.2224H176.123V25.5115C176.946 24.4088 178.018 23.5117 179.252 22.8915C180.487 22.2712 181.85 21.9448 183.234 21.9382C184.671 21.9174 186.093 22.2176 187.397 22.8165C188.701 23.4154 189.852 24.2978 190.765 25.3981C192.806 27.7472 193.887 30.7685 193.796 33.8681C193.829 37.0385 192.705 40.1139 190.631 42.5271C189.673 43.6414 188.479 44.5338 187.135 45.1413C185.791 45.7489 184.33 46.0569 182.853 46.0437C181.463 46.0814 180.086 45.768 178.852 45.133C177.618 44.498 176.567 43.5622 175.798 42.4137L175.627 45.382L170.041 45.4387ZM181.823 40.6554C182.929 40.6554 183.901 40.3529 184.797 39.8046C185.655 39.1996 186.322 38.4056 186.875 37.4413C187.352 36.4771 187.6 35.3238 187.6 34.0382C187.674 32.9216 187.455 31.805 186.964 30.7975C186.472 29.7901 185.726 28.9263 184.797 28.2907C183.905 27.7393 182.874 27.4471 181.823 27.4471C180.772 27.4471 179.741 27.7393 178.849 28.2907C178.01 28.8957 177.324 29.6898 176.79 30.654C176.258 31.7079 176.008 32.8799 176.065 34.0571C175.991 35.1737 176.21 36.2904 176.701 37.2978C177.193 38.3052 177.939 39.169 178.868 39.8046C179.764 40.3529 180.679 40.6554 181.823 40.6554Z" fill="#FF385C"/>
</g>
<defs>
<clipPath id="clip0_47_812">
<rect width="194.464" height="60.5" fill="white" transform="translate(0 0.5)"/>
</clipPath>
</defs>
</svg>
