<svg width="173" height="53" viewBox="0 0 173 53" fill="none" xmlns="http://www.w3.org/2000/svg">
<g clip-path="url(#clip0_47_821)">
<path d="M128.543 51.1619L142.959 35.1958L128.543 19.2275H143.753L150.893 26.9839L157.768 19.2275H172.447L158.1 35.1299L172.644 51.1619H157.372L150.297 43.3418L143.289 51.1619H128.543Z" fill="#FF6600"/>
<path d="M128.543 12.0692H112.216V19.2277H128.543V30.0162H112.216V39.9187H128.543V51.1621H100.216V0.856934H128.543V12.0692Z" fill="#FF6600"/>
<path d="M88.2669 0.856934V21.4442H88.1354C85.4899 18.4469 82.1846 17.4053 78.3494 17.4053C70.4934 17.4053 64.5757 22.6695 62.4984 29.6295C60.1295 21.9606 54.0201 17.2616 44.9609 17.2616C37.6039 17.2616 31.7944 20.5167 28.7627 25.821V19.2284H13.5558V12.0707H30.1508V0.856934H0V51.1628H13.5558V30.0162H27.0672C26.6643 31.5697 26.4494 33.2328 26.4494 34.9878C26.4494 45.4815 34.582 52.8445 44.9609 52.8445C53.6887 52.8445 59.4403 48.8055 62.4826 41.4418H50.8658C49.2943 43.6539 48.1024 44.311 44.9609 44.311C41.3181 44.311 38.1774 41.1781 38.1774 37.4644H61.8318C62.8576 45.7993 69.4442 52.9874 78.4832 52.9874C82.3822 52.9874 85.9521 51.0969 88.1354 47.9047H88.2669V51.1613H100.217V0.856934H88.2669ZM38.5547 30.1666C39.3085 26.9714 41.8224 24.8831 44.9609 24.8831C48.4158 24.8831 50.802 26.907 51.4295 30.1666C51.6941 30.1666 38.5547 30.1666 38.5547 30.1666ZM81.0151 43.5028C76.6103 43.5028 73.8731 39.4572 73.8731 35.233C73.8731 30.7178 76.2541 26.3758 81.0151 26.3758C85.9521 26.3758 87.9189 30.7178 87.9189 35.233C87.9182 39.5149 85.8341 43.5028 81.0151 43.5028Z" fill="#652C8F"/>
</g>
<defs>
<clipPath id="clip0_47_821">
<rect width="172.857" height="51.8571" fill="white" transform="translate(0 0.856934)"/>
</clipPath>
</defs>
</svg>
