<svg width="182" height="61" viewBox="0 0 182 61" fill="none" xmlns="http://www.w3.org/2000/svg">
<g clip-path="url(#clip0_47_815)">
<path d="M77.2376 31.5262C77.2376 39.9239 70.5715 46.1119 62.3907 46.1119C54.2098 46.1119 47.5437 39.9239 47.5437 31.5262C47.5437 23.0693 54.2098 16.9404 62.3907 16.9404C70.5715 16.9404 77.2376 23.0693 77.2376 31.5262ZM70.7383 31.5262C70.7383 26.2785 66.8748 22.6879 62.3907 22.6879C57.9065 22.6879 54.043 26.2785 54.043 31.5262C54.043 36.7213 57.9065 40.3644 62.3907 40.3644C66.8748 40.3644 70.7383 36.7147 70.7383 31.5262Z" fill="#EA4335"/>
<path d="M109.267 31.5262C109.267 39.9239 102.601 46.1119 94.42 46.1119C86.2391 46.1119 79.573 39.9239 79.573 31.5262C79.573 23.0759 86.2391 16.9404 94.42 16.9404C102.601 16.9404 109.267 23.0693 109.267 31.5262ZM102.768 31.5262C102.768 26.2785 98.9041 22.6879 94.42 22.6879C89.9358 22.6879 86.0723 26.2785 86.0723 31.5262C86.0723 36.7213 89.9358 40.3644 94.42 40.3644C98.9041 40.3644 102.768 36.7147 102.768 31.5262Z" fill="#FBBC05"/>
<path d="M139.962 17.8216V44.0076C139.962 54.7792 133.516 59.1786 125.896 59.1786C118.722 59.1786 114.405 54.4504 112.777 50.5837L118.435 48.2623C119.443 50.6363 121.912 53.4377 125.889 53.4377C130.767 53.4377 133.79 50.4719 133.79 44.8888V42.791H133.563C132.108 44.56 129.305 46.1054 125.769 46.1054C118.369 46.1054 111.589 39.7529 111.589 31.5788C111.589 23.3455 118.369 16.9404 125.769 16.9404C129.299 16.9404 132.101 18.4858 133.563 20.2022H133.79V17.8282H139.962V17.8216ZM134.25 31.5788C134.25 26.4429 130.773 22.6879 126.349 22.6879C121.865 22.6879 118.108 26.4429 118.108 31.5788C118.108 36.6621 121.865 40.3644 126.349 40.3644C130.773 40.3644 134.25 36.6621 134.25 31.5788Z" fill="#4285F4"/>
<path d="M150.138 2.47266V45.2172H143.799V2.47266H150.138Z" fill="#34A853"/>
<path d="M174.841 36.3265L179.885 39.6408C178.257 42.0148 174.334 46.1051 167.554 46.1051C159.146 46.1051 152.867 39.7 152.867 31.5194C152.867 22.8455 159.2 16.9336 166.827 16.9336C174.507 16.9336 178.264 22.9573 179.492 26.2125L180.166 27.8696L160.381 35.9451C161.895 38.8714 164.251 40.3642 167.554 40.3642C170.864 40.3642 173.159 38.7596 174.841 36.3265ZM159.313 31.0788L172.539 25.6666C171.811 23.8451 169.623 22.5759 167.047 22.5759C163.744 22.5759 159.146 25.4496 159.313 31.0788Z" fill="#EA4335"/>
<path d="M23.5485 27.7316V21.5435H44.708C44.9148 22.622 45.0216 23.8977 45.0216 25.2787C45.0216 29.9214 43.7337 35.6623 39.5833 39.7527C35.5462 43.8956 30.3882 46.1052 23.5552 46.1052C10.8903 46.1052 0.240479 35.9385 0.240479 23.4571C0.240479 10.9757 10.8903 0.809082 23.5552 0.809082C30.5617 0.809082 35.5529 3.51843 39.303 7.04979L34.8723 11.4163C32.1831 8.93055 28.5398 6.99718 23.5485 6.99718C14.3001 6.99718 7.06675 14.3427 7.06675 23.4571C7.06675 32.5716 14.3001 39.9171 23.5485 39.9171C29.5474 39.9171 32.9639 37.5431 35.1525 35.3861C36.9275 33.6369 38.0952 31.138 38.5557 27.725L23.5485 27.7316Z" fill="#4285F4"/>
</g>
<defs>
<clipPath id="clip0_47_815">
<rect width="181.5" height="60.5" fill="white" transform="translate(0 0.5)"/>
</clipPath>
</defs>
</svg>
