<svg width="264" height="57" viewBox="0 0 264 57" fill="none" xmlns="http://www.w3.org/2000/svg">
<g clip-path="url(#clip0_47_818)">
<path d="M93.0479 32.5358L91.4768 36.9779H91.3458C91.084 35.9762 90.6039 34.452 89.8183 32.6229L81.3951 11.5015H73.1465V45.1651H78.6019V24.3921C78.6019 23.0856 78.6019 21.605 78.5583 19.7759C78.5146 18.8614 78.4274 18.1646 78.3837 17.642H78.5146C78.7765 18.9485 79.082 19.9065 79.3002 20.5162L89.4255 45.078H93.2662L103.304 20.2985C103.522 19.7324 103.741 18.6001 103.959 17.642H104.09C103.959 20.1243 103.872 22.3453 103.828 23.6953V45.0345H109.632V11.4144H101.689L93.0479 32.5358ZM115.132 20.9082H120.805V45.0345H115.132V20.9082ZM118.012 10.7176C117.052 10.7176 116.266 11.066 115.612 11.6757C114.957 12.2854 114.608 13.0693 114.608 14.0274C114.608 14.9419 114.957 15.7258 115.612 16.3355C116.266 16.9452 117.052 17.25 118.012 17.25C118.972 17.25 119.801 16.9016 120.412 16.3355C121.067 15.7258 121.416 14.9419 121.416 14.0274C121.416 13.1129 121.067 12.329 120.412 11.6757C119.845 11.066 119.016 10.7176 118.012 10.7176ZM140.925 20.6904C139.877 20.4727 138.786 20.342 137.739 20.342C135.164 20.342 132.807 20.9082 130.843 22.0405C128.879 23.1727 127.308 24.7405 126.304 26.7002C125.257 28.7035 124.733 31.0116 124.733 33.6681C124.733 35.9762 125.257 38.023 126.261 39.8957C127.264 41.7247 128.661 43.2054 130.538 44.207C132.327 45.2087 134.422 45.7313 136.779 45.7313C139.485 45.7313 141.798 45.1651 143.631 44.1199L143.674 44.0764V38.8505L143.456 39.0247C142.627 39.6344 141.667 40.157 140.707 40.4618C139.703 40.8102 138.786 40.9844 138.001 40.9844C135.731 40.9844 133.942 40.3312 132.676 38.894C131.367 37.5005 130.712 35.5843 130.712 33.1891C130.712 30.7068 131.367 28.747 132.72 27.3099C134.073 25.8728 135.862 25.1325 138.044 25.1325C139.877 25.1325 141.754 25.7422 143.456 26.9615L143.674 27.1357V21.605L143.631 21.5614C142.889 21.2566 142.06 20.9082 140.925 20.6904ZM159.648 20.5162C158.251 20.5162 156.942 20.9517 155.807 21.8663C154.847 22.6502 154.193 23.7824 153.625 25.1325H153.582V20.9082H147.908V45.0345H153.582V32.71C153.582 30.6197 154.018 28.8777 154.978 27.6148C155.938 26.3083 157.16 25.6551 158.644 25.6551C159.168 25.6551 159.692 25.7857 160.346 25.8728C160.957 26.047 161.394 26.2212 161.699 26.4389L161.917 26.6131V20.9517L161.787 20.9082C161.394 20.6469 160.608 20.5162 159.648 20.5162ZM175.098 20.3856C171.126 20.3856 167.94 21.5614 165.714 23.8695C163.445 26.1776 162.354 29.3567 162.354 33.3633C162.354 37.1085 163.489 40.157 165.671 42.378C167.853 44.5554 170.821 45.6877 174.53 45.6877C178.415 45.6877 181.513 44.5119 183.739 42.1602C186.009 39.8086 187.1 36.673 187.1 32.7971C187.1 28.9648 186.052 25.9163 183.914 23.6953C181.863 21.4743 178.851 20.3856 175.098 20.3856ZM179.637 38.9376C178.589 40.2876 176.931 40.9408 174.88 40.9408C172.828 40.9408 171.17 40.2876 169.992 38.8505C168.813 37.5005 168.246 35.5407 168.246 33.0584C168.246 30.489 168.857 28.5293 169.992 27.1357C171.17 25.7422 172.785 25.0454 174.836 25.0454C176.844 25.0454 178.415 25.6986 179.549 27.0486C180.684 28.3987 181.295 30.3584 181.295 32.9278C181.208 35.5407 180.728 37.5876 179.637 38.9376ZM199.756 30.9245C197.967 30.1842 196.832 29.618 196.309 29.139C195.872 28.7035 195.654 28.0938 195.654 27.3099C195.654 26.6567 195.916 26.0034 196.57 25.568C197.225 25.1325 197.967 24.9147 199.058 24.9147C200.018 24.9147 201.022 25.0889 201.982 25.3502C202.942 25.6115 203.815 26.0034 204.514 26.526L204.732 26.7002V21.3872L204.601 21.3437C203.946 21.0824 203.073 20.8211 202.026 20.6033C200.978 20.4291 200.018 20.342 199.233 20.342C196.527 20.342 194.301 20.9953 192.555 22.4324C190.81 23.7824 189.98 25.6115 189.98 27.7454C189.98 28.8777 190.155 29.8793 190.548 30.7068C190.94 31.5342 191.508 32.3181 192.293 32.9713C193.079 33.581 194.214 34.2778 195.785 34.931C197.094 35.4972 198.098 35.9327 198.709 36.2811C199.32 36.6295 199.713 37.0214 200.018 37.3263C200.237 37.6747 200.367 38.1101 200.367 38.6763C200.367 40.2876 199.145 41.0715 196.658 41.0715C195.698 41.0715 194.694 40.8973 193.515 40.5054C192.337 40.1134 191.246 39.5473 190.329 38.894L190.111 38.7198V44.2506L190.242 44.2941C191.071 44.6861 192.075 44.9474 193.297 45.2522C194.519 45.47 195.61 45.6442 196.57 45.6442C199.495 45.6442 201.895 44.9909 203.597 43.5538C205.343 42.1602 206.259 40.3747 206.259 38.0666C206.259 36.4553 205.823 35.0181 204.863 33.9294C203.597 32.8842 202.026 31.7955 199.756 30.9245ZM221.229 20.3856C217.258 20.3856 214.072 21.5614 211.846 23.8695C209.62 26.1776 208.485 29.3567 208.485 33.3633C208.485 37.1085 209.62 40.157 211.802 42.378C213.984 44.5554 216.952 45.6877 220.662 45.6877C224.546 45.6877 227.645 44.5119 229.871 42.1602C232.14 39.8086 233.231 36.673 233.231 32.7971C233.231 28.9648 232.184 25.9163 230.045 23.6953C227.994 21.4743 224.982 20.3856 221.229 20.3856ZM225.724 38.9376C224.677 40.2876 223.018 40.9408 220.967 40.9408C218.872 40.9408 217.258 40.2876 216.079 38.8505C214.901 37.5005 214.333 35.5407 214.333 33.0584C214.333 30.489 214.944 28.5293 216.079 27.1357C217.258 25.7422 218.872 25.0454 220.924 25.0454C222.888 25.0454 224.502 25.6986 225.637 27.0486C226.772 28.3987 227.383 30.3584 227.383 32.9278C227.383 35.5407 226.815 37.5876 225.724 38.9376ZM263.563 25.568V20.9082H257.846V13.7661L257.671 13.8096L252.26 15.421L252.129 15.4645V20.9082H243.575V17.8597C243.575 16.4662 243.924 15.3774 244.535 14.6806C245.146 13.9838 246.062 13.6355 247.197 13.6355C247.983 13.6355 248.812 13.8096 249.728 14.2016L249.947 14.3322V9.41117L249.816 9.36762C249.03 9.10633 247.983 8.93213 246.63 8.93213C244.928 8.93213 243.444 9.32407 242.091 9.97731C240.738 10.7176 239.734 11.7193 238.992 13.0693C238.25 14.3758 237.857 15.8565 237.857 17.5549V20.9082H233.886V25.5244H237.857V45.0345H243.575V25.568H252.129V37.9795C252.129 43.0748 254.529 45.6442 259.33 45.6442C260.116 45.6442 260.945 45.5135 261.73 45.3829C262.56 45.2087 263.171 44.9909 263.52 44.8167L263.563 44.7732V40.1134L263.345 40.2876C262.996 40.5054 262.69 40.6796 262.167 40.8102C261.73 40.9408 261.338 40.9844 261.032 40.9844C259.897 40.9844 259.112 40.7231 258.544 40.0699C258.021 39.4602 257.759 38.4585 257.759 36.9779V25.568H263.563Z" fill="#737373"/>
<path d="M0 0.178711H26.7535V26.8744H0V0.178711Z" fill="#F25022"/>
<path d="M29.5464 0.178711H56.2999V26.8744H29.5464V0.178711Z" fill="#7FBA00"/>
<path d="M0 29.6616H26.7535V56.3573H0V29.6616Z" fill="#00A4EF"/>
<path d="M29.5464 29.6616H56.2999V56.3573H29.5464V29.6616Z" fill="#FFB900"/>
</g>
<defs>
<clipPath id="clip0_47_818">
<rect width="263.607" height="56.1786" fill="white" transform="translate(0 0.178711)"/>
</clipPath>
</defs>
</svg>
